<svg width="24" height="24" viewBox="0 0 24 24" fill="none" xmlns="http://www.w3.org/2000/svg">
<path d="M11.7839 7.79976C9.63519 7.79976 7.88165 9.55334 7.88165 11.7021C7.88165 13.8509 9.63519 15.6045 11.7839 15.6045C13.9327 15.6045 15.6862 13.8509 15.6862 11.7021C15.6862 9.55334 13.9327 7.79976 11.7839 7.79976ZM23.4879 11.7021C23.4879 10.0861 23.5025 8.48479 23.4118 6.87174C23.321 4.99813 22.8936 3.3353 21.5236 1.96523C20.1506 0.592228 18.4907 0.167739 16.6172 0.076986C15.0012 -0.0137668 13.3999 0.000870771 11.7869 0.000870771C10.1709 0.000870771 8.5696 -0.0137668 6.95657 0.076986C5.083 0.167739 3.4202 0.595155 2.05015 1.96523C0.677178 3.33823 0.252697 4.99813 0.161945 6.87174C0.0711944 8.48772 0.0858317 10.0891 0.0858317 11.7021C0.0858317 13.3152 0.0711944 14.9195 0.161945 16.5325C0.252697 18.4061 0.680105 20.069 2.05015 21.439C3.42313 22.812 5.083 23.2365 6.95657 23.3273C8.57253 23.418 10.1738 23.4034 11.7869 23.4034C13.4028 23.4034 15.0041 23.418 16.6172 23.3273C18.4907 23.2365 20.1535 22.8091 21.5236 21.439C22.8966 20.066 23.321 18.4061 23.4118 16.5325C23.5055 14.9195 23.4879 13.3181 23.4879 11.7021ZM11.7839 17.7065C8.46128 17.7065 5.77973 15.0249 5.77973 11.7021C5.77973 8.3794 8.46128 5.6978 11.7839 5.6978C15.1066 5.6978 17.7882 8.3794 17.7882 11.7021C17.7882 15.0249 15.1066 17.7065 11.7839 17.7065ZM18.0341 6.85417C17.2583 6.85417 16.6318 6.22768 16.6318 5.45189C16.6318 4.6761 17.2583 4.04962 18.0341 4.04962C18.8098 4.04962 19.4363 4.6761 19.4363 5.45189C19.4365 5.63611 19.4004 5.81856 19.33 5.9888C19.2597 6.15903 19.1564 6.31371 19.0261 6.44397C18.8959 6.57423 18.7412 6.67751 18.571 6.7479C18.4007 6.81829 18.2183 6.8544 18.0341 6.85417Z" fill="white"/>
</svg>
